<?xml version="1.0" encoding="UTF-8"?>
<svg version="1.1" xmlns="http://www.w3.org/2000/svg" width="16" height="16">
<path d="M0 0 C1.07765625 0.03609375 2.1553125 0.0721875 3.265625 0.109375 C4.49539063 0.17898438 4.49539063 0.17898438 5.75 0.25 C5.85841951 2.16541138 5.93578079 4.08259773 6 6 C6.04640625 7.06734375 6.0928125 8.1346875 6.140625 9.234375 C5.75 12.25 5.75 12.25 4.125 14.625 C1.05483518 16.72563909 -0.81531658 16.66020363 -4.5 16.5 C-5.57765625 16.46390625 -6.6553125 16.4278125 -7.765625 16.390625 C-8.99539063 16.32101563 -8.99539063 16.32101563 -10.25 16.25 C-10.35841951 14.33458862 -10.43578079 12.41740227 -10.5 10.5 C-10.54640625 9.43265625 -10.5928125 8.3653125 -10.640625 7.265625 C-10.25 4.25 -10.25 4.25 -8.625 1.875 C-5.55483518 -0.22563909 -3.68468342 -0.16020363 0 0 Z M-2.25 6.25 C-1.25 8.25 -1.25 8.25 -1.25 8.25 Z M1.75 7.25 C2.75 9.25 2.75 9.25 2.75 9.25 Z " fill="#FFFFFF" transform="translate(10.25,-0.25)"/>
</svg>