<svg width="104" height="44" viewBox="0 0 104 44" fill="none" xmlns="http://www.w3.org/2000/svg">
<path fill-rule="evenodd" clip-rule="evenodd" d="M0.347656 15.3763C0.415577 11.159 1.81722 7.80003 4.53406 4.99674C6.93599 2.52689 9.86894 1.00793 13.2526 0.402819C16.9574 -0.264041 20.5325 0.205231 23.8915 1.93413C27.6704 3.87296 30.307 6.83678 31.6222 10.9182C32.1779 12.6533 32.3569 14.4316 32.1964 16.2284C31.8568 20.0999 30.1711 23.3107 27.2937 25.8979C25.0215 27.9417 22.3479 29.1951 19.347 29.7508C17.7848 30.041 16.2103 30.0966 14.6234 29.9361C11.9683 29.6706 9.50463 28.8555 7.27559 27.386C3.61404 24.9778 1.2862 21.6559 0.551419 17.2904C0.427927 16.5618 0.390879 15.8147 0.347656 15.3763ZM16.2967 4.37311C16.0189 4.38546 15.6978 4.3978 15.3767 4.4225C15.0556 4.45338 14.7345 4.48425 14.4196 4.53365C11.5793 5.02144 9.17738 6.29959 7.33116 8.52863C5.35528 10.9182 4.5711 13.6783 5.07125 16.7471C5.4973 19.3589 6.81249 21.4892 8.86865 23.1378C11.5361 25.2804 14.5925 26.0769 17.9639 25.6385C20.5202 25.3051 22.743 24.2492 24.5707 22.4277C26.9974 20.0073 28.0594 17.0805 27.6148 13.6659C27.3184 11.3998 26.3058 9.44865 24.688 7.8309C22.3911 5.52776 19.5693 4.4472 16.2967 4.37311Z" fill="white"/>
<path d="M44.9936 0.1312C46.6422 0.1312 48.297 0.100327 49.9457 0.137375C54.1629 0.236169 57.7813 1.7613 60.7451 4.76835C62.758 6.81215 64.03 9.2573 64.5919 12.0668C64.808 13.1411 64.9191 14.2279 64.8574 15.3208C64.7154 17.9635 63.9621 20.421 62.5789 22.6748C60.8994 25.4287 58.6272 27.528 55.6881 28.8741C54.484 29.4298 53.2306 29.8312 51.903 29.9547C51.3905 30.0041 50.8718 29.9855 50.3594 29.967C49.6122 29.9361 48.8713 29.8929 48.1303 29.825C46.315 29.6583 44.6293 29.0779 43.098 28.0961C40.2947 26.2869 38.5349 23.743 37.8619 20.4766C37.7199 19.785 37.6396 19.0688 37.6334 18.3587C37.6149 15.117 37.6211 11.8753 37.6273 8.63367C37.6273 7.54693 38.4423 6.60839 39.4797 6.48489C40.6158 6.34288 41.6284 7.02209 41.8939 8.115C41.9372 8.30641 41.9619 8.51635 41.9619 8.71394C41.968 11.3814 41.9063 14.0488 41.9866 16.7163C42.0854 20.0753 43.7031 22.5698 46.6361 24.1999C48.0933 25.0088 49.6801 25.299 51.3349 25.1693C52.3723 25.0829 53.3541 24.7556 54.2926 24.3172C57.1206 22.9835 59.1273 20.8718 60.0597 17.8771C61.1588 14.3699 60.5043 11.1344 58.2011 8.28171C56.4661 6.13294 54.1753 4.89184 51.4584 4.43492C50.9892 4.36082 50.5014 4.32377 50.0197 4.32377C46.6175 4.3176 43.2153 4.32377 39.8131 4.32377C38.8066 4.32377 38.0101 3.74953 37.7199 2.82951C37.3062 1.50197 38.3003 0.131201 39.6896 0.125026C41.4555 0.118851 43.2277 0.125026 44.9936 0.125026C44.9936 0.129143 44.9936 0.1312 44.9936 0.1312Z" fill="white"/>
<path d="M69.7559 15.0801C69.7559 10.9864 69.7559 6.88641 69.762 2.79263C69.762 1.52683 70.54 0.563585 71.7626 0.310425C73.0655 0.0387415 74.4239 0.98346 74.6215 2.30483C74.6523 2.50859 74.6647 2.72471 74.6647 2.93464C74.6688 11.0646 74.6709 19.1966 74.6709 27.3306C74.6709 28.6211 73.8682 29.5967 72.6024 29.8499C71.281 30.1154 69.867 29.041 69.7744 27.7011C69.762 27.5467 69.762 27.3924 69.762 27.2442C69.7579 23.1895 69.7559 19.1348 69.7559 15.0801Z" fill="white"/>
<path fill-rule="evenodd" clip-rule="evenodd" d="M103.467 13.067C103.467 16.5618 103.467 20.0567 103.467 23.5515C103.467 25.1693 102.188 26.3918 100.577 26.3054C99.9655 26.2683 99.4221 26.0337 98.9714 25.62C97.3042 24.0578 95.6433 22.4956 93.9761 20.9335C91.994 19.0749 90.0058 17.2225 88.0238 15.3639C86.4554 13.8944 84.8932 12.4248 83.3249 10.9553C81.8924 9.61536 80.4598 8.26929 79.0211 6.93557C78.3728 6.33045 78.1011 5.60185 78.2925 4.7374C78.4716 3.89765 79.015 3.35428 79.8362 3.11347C80.5895 2.89118 81.2872 3.03938 81.8677 3.57039C82.9173 4.52746 83.9423 5.50923 84.9858 6.47865C86.4184 7.81854 87.8323 9.17696 89.2896 10.4983C90.3331 11.443 91.5989 11.9 93.0005 11.8938C95.7667 11.8876 98.2428 10.0414 98.817 7.2196C98.8973 6.8306 98.9282 6.42925 98.9343 6.03407C98.9467 4.84237 98.9343 3.65066 98.9405 2.45896C98.9467 1.19934 99.9531 0.192871 101.194 0.192871C102.442 0.192871 103.467 1.21786 103.467 2.47748C103.467 6.00526 103.467 9.53509 103.467 13.067ZM100.231 11.653C98.1934 14.0364 95.6433 15.1725 92.5004 15.1355C95.0999 17.5806 97.6438 19.964 100.231 22.403C100.231 18.7847 100.231 15.2528 100.231 11.653Z" fill="white"/>
<path d="M82.7689 14.4997C82.7627 13.3265 81.818 12.32 80.6942 12.2706C79.4037 12.215 78.3602 13.0733 78.2552 14.3021C78.212 14.7652 78.2305 15.2344 78.2305 15.6975C78.2305 19.6616 78.2243 23.6196 78.2367 27.5775C78.2367 27.9171 78.2861 28.2814 78.4034 28.5963C78.8047 29.646 79.8606 30.1956 80.9844 29.9795C82.0217 29.7757 82.7689 28.8495 82.7689 27.7504C82.775 25.5584 82.775 23.3664 82.775 21.1744C82.775 18.9516 82.7812 16.7225 82.7689 14.4997Z" fill="white"/>
<path d="M60.717 36.876L59.4883 38.1603C59.4883 38.1726 59.4883 38.1871 59.4883 38.2035L61.458 38.5308L60.717 36.876Z" fill="white"/>
<path d="M63.8245 35.1904L63.4663 34.6038C63.4581 34.6038 63.4478 34.6038 63.4355 34.6038C63.4066 34.6038 63.3778 34.6018 63.349 34.5977C63.3243 34.5977 63.2996 34.5977 63.2749 34.5977C62.9415 34.5977 62.5895 34.6285 62.2129 34.7026L63.8245 35.1904Z" fill="white"/>
<path d="M64.0156 35.7774C64.4417 35.796 64.8122 35.7651 65.1085 35.7651L64.065 35.4502L64.0156 35.7774Z" fill="white"/>
<path d="M63.7617 37.3267L65.0028 36.5858C64.6015 36.5549 64.2248 36.3079 63.9655 36.0918L63.7617 37.3267Z" fill="white"/>
<path d="M65.9533 36.0178L65.6816 35.9375C65.7187 35.9992 65.7372 36.0733 65.7249 36.1536L65.9533 36.0178Z" fill="white"/>
<path d="M63.5516 37.3762L63.5454 37.3515L63.5763 37.37L63.8047 35.9498C63.6874 35.8325 63.6195 35.7522 63.6195 35.7522C63.6936 35.7605 63.7656 35.7667 63.8356 35.7708L63.8727 35.5361L61.0879 36.6784L63.5516 37.3762Z" fill="white"/>
<path d="M59.9146 36.2404C59.8961 36.2898 59.822 36.1231 59.8035 36.1725C59.8035 36.1231 59.8776 36.2775 59.9085 36.2342L59.7788 36.1602C59.5874 36.7097 59.4824 37.2963 59.4824 37.9076L60.6556 36.6912L59.9146 36.2404Z" fill="white"/>
<path d="M61.8398 38.5925L61.9325 38.611L63.4452 39.8459C63.5111 39.7224 63.5873 39.601 63.6737 39.4816C63.6778 39.4775 63.6799 39.4734 63.6799 39.4693L63.5626 37.6416L61.8398 38.5925Z" fill="white"/>
<path d="M60.9319 40.7662L61.2468 39.6301L59.5117 38.4692C59.7587 40.8835 61.6173 42.8224 63.9883 43.199C63.8772 43.0199 63.7475 42.81 63.624 42.5754L60.9319 40.7662Z" fill="white"/>
<path d="M60.7183 36.5243L61.2308 34.9683C61.2061 34.9765 61.1814 34.9847 61.1567 34.993C60.848 35.1103 60.4836 35.2646 60.0761 35.4746C59.9897 35.6434 59.9135 35.8162 59.8477 35.9933L60.7183 36.5243Z" fill="white"/>
<path d="M68.2258 37.0988C68.1023 36.7962 67.8676 36.4999 67.4663 36.2776C67.3181 36.1829 67.1472 36.0985 66.9538 36.0244L66.3672 36.0676L67.8306 37.531L67.7874 38.2535C67.9664 38.3646 68.1084 38.5128 68.2134 38.698C68.2134 38.698 68.5901 37.8892 68.2258 37.0988Z" fill="white"/>
<path d="M64.0521 35.2213L64.577 34.7706C64.3608 34.7088 64.1324 34.6656 63.8854 34.6347C63.8792 34.6347 63.8545 34.6347 63.8484 34.6347H63.8422C63.799 34.6286 63.7557 34.6224 63.7125 34.6224L63.7063 34.6162C63.6981 34.6162 63.6899 34.6162 63.6816 34.6162L64.0521 35.2213Z" fill="white"/>
<path d="M61.6426 38.4998L63.4147 37.5242L60.877 36.8018L61.6426 38.4998Z" fill="white"/>
<path d="M63.8112 35.3696L61.86 34.7769C61.7201 34.8098 61.5781 34.8489 61.434 34.8942L60.8906 36.5675L63.8112 35.3696Z" fill="white"/>
<path d="M63.8379 37.4872L65.363 38.2159C65.4165 38.1953 65.4701 38.1747 65.5236 38.1541L66.0299 36.1782L63.8379 37.4872Z" fill="white"/>
<path d="M63.2133 42.0812L61.8549 40.0374L61.4042 39.7349L61.1387 40.6919L63.2133 42.0812Z" fill="white"/>
<path d="M61.5026 38.716L59.7676 38.4258L61.2989 39.4508L61.5026 38.716Z" fill="white"/>
<path fill-rule="evenodd" clip-rule="evenodd" d="M64.7518 43.6929C61.5719 43.6929 58.9785 41.1057 58.9785 37.9196C58.9785 34.7335 61.5719 32.1401 64.7518 32.1401C67.9379 32.1401 70.5312 34.7335 70.5312 37.9196C70.5312 41.1057 67.9379 43.6929 64.7518 43.6929ZM64.7518 32.7638C61.9115 32.7638 59.596 35.0731 59.596 37.9196C59.596 40.7599 61.9115 43.0754 64.7518 43.0754C67.5983 43.0754 69.9076 40.7599 69.9076 37.9196C69.9076 35.0731 67.5983 32.7638 64.7518 32.7638Z" fill="white"/>
<path d="M66.3266 35.6104C66.024 35.3757 65.493 35.0485 64.7953 34.8262L64.2148 35.3078L65.9314 35.8265L66.1907 35.9067L66.6909 35.8635L66.3266 35.6104Z" fill="white"/>
<path d="M63.1882 40.5501C63.1882 40.5501 63.2561 40.2475 63.3673 40.0067L61.8606 38.7779L61.6754 38.7471L61.4531 39.5559L61.9841 39.9141L63.3302 41.9455C63.1882 41.5565 63.0956 41.0749 63.1882 40.5501Z" fill="white"/>
<path d="M64.4091 38.7283C64.6375 38.5616 64.8845 38.4196 65.1377 38.3085L63.7422 37.6416L63.8472 39.2655C63.8677 39.2408 63.8863 39.2182 63.9027 39.1976C63.9954 39.0988 64.1744 38.9136 64.4091 38.7283Z" fill="white"/>
<path d="M60.657 36.6911L59.7617 36.1416L59.7864 36.4195L60.657 36.6911Z" fill="white"/>
<path d="M63.4093 37.3393L63.576 37.3887L63.6316 37.0244C63.6316 37.0244 63.2302 37.0491 63.4093 37.3393Z" fill="white"/>
<path d="M67.5711 38.1419L67.6144 38.1604L67.6514 37.5985L66.2127 36.166L65.7188 38.0987C66.3918 37.9134 67.0648 37.9196 67.5711 38.1419Z" fill="white"/>
<path d="M76.7846 41.4646H74.0986C73.5635 41.4646 73.1128 41.3863 72.7464 41.2299C72.3759 41.0735 72.094 40.843 71.9005 40.5384C71.7029 40.2337 71.565 39.8983 71.4868 39.5319C71.4044 39.1655 71.3633 38.7354 71.3633 38.2414C71.3633 37.7515 71.4044 37.3234 71.4868 36.9571C71.565 36.5866 71.7029 36.2511 71.9005 35.9506C72.094 35.646 72.3759 35.4155 72.7464 35.259C73.1128 35.1026 73.5635 35.0244 74.0986 35.0244H76.6796V35.9877H74.6667C73.8805 35.9877 73.3433 36.1461 73.0551 36.4631C72.7629 36.7801 72.6167 37.3728 72.6167 38.2414C72.6167 39.1141 72.7629 39.7089 73.0551 40.0259C73.3433 40.3387 73.8805 40.4951 74.6667 40.4951H76.7846V41.4646Z" fill="white"/>
<path fill-rule="evenodd" clip-rule="evenodd" d="M88.5667 38.2043C89.2418 38.262 89.5793 38.7601 89.5793 39.6986C89.5793 40.2543 89.4744 40.6886 89.2644 41.0015C89.0504 41.3102 88.6593 41.4646 88.0913 41.4646H84.794C84.1683 41.4646 83.8555 41.1414 83.8555 40.4951V35.9877C83.8555 35.3455 84.1683 35.0244 84.794 35.0244H88.0913C89.0175 35.0244 89.4806 35.6131 89.4806 36.7904C89.4806 37.626 89.1759 38.085 88.5667 38.1673V38.2043ZM85.0719 36.4508V37.7289H87.517C87.7887 37.7289 87.9739 37.663 88.0727 37.5313C88.1756 37.3996 88.2271 37.1711 88.2271 36.8459C88.2271 36.5578 88.1736 36.3437 88.0666 36.2038C87.9595 36.0597 87.7743 35.9877 87.5108 35.9877H85.5288C85.3477 35.9877 85.2262 36.0185 85.1645 36.0803C85.1027 36.142 85.0719 36.2655 85.0719 36.4508ZM85.0719 38.6921V40.0382C85.0719 40.2235 85.1027 40.3449 85.1645 40.4025C85.2262 40.4643 85.3477 40.4951 85.5288 40.4951H87.4553C87.7722 40.4951 87.9966 40.4293 88.1283 40.2975C88.26 40.1617 88.3259 39.9332 88.3259 39.6122C88.3259 39.2952 88.2642 39.0626 88.1407 38.9144C88.0131 38.7662 87.8113 38.6921 87.5355 38.6921H85.0719Z" fill="white"/>
<path d="M95.26 41.4646H91.0674C90.4418 41.4646 90.1289 41.1414 90.1289 40.4951V35.0244H91.3453V40.0382C91.3453 40.2235 91.3762 40.3449 91.4379 40.4025C91.4997 40.4643 91.6211 40.4951 91.8022 40.4951H95.26V41.4646Z" fill="white"/>
<path d="M100.826 40.5508V41.5202H96.6026C95.9769 41.5202 95.6641 41.1971 95.6641 40.5508V36.0433C95.6641 35.4012 95.9769 35.0801 96.6026 35.0801H100.789V36.0433H97.3374C97.1522 36.0474 97.0307 36.0783 96.9731 36.1359C96.9113 36.1977 96.8805 36.3212 96.8805 36.5064V37.7475H100.696V38.7169H96.8805V40.0939C96.8805 40.2791 96.9113 40.4026 96.9731 40.4644C97.0307 40.522 97.1522 40.5508 97.3374 40.5508H100.826Z" fill="white"/>
<path d="M78.2794 35.0371H76.9766L79.6749 39.4952V41.4649H80.9345V39.4952H80.9283L78.2794 35.0371Z" fill="white"/>
<path d="M81.163 39.0872L83.639 35.0366H82.33L80.5332 38.0251L81.163 39.0872Z" fill="#CC0000"/>
<path fill-rule="evenodd" clip-rule="evenodd" d="M103.464 40.6677C103.464 41.1493 103.075 41.5383 102.593 41.5383C102.118 41.5383 101.723 41.1493 101.723 40.6677C101.723 40.1922 102.118 39.8032 102.593 39.8032C103.075 39.8032 103.464 40.1922 103.464 40.6677ZM101.926 40.6677C101.926 41.0381 102.223 41.3407 102.593 41.3407C102.964 41.3407 103.266 41.0381 103.266 40.6677C103.266 40.2972 102.964 40.0008 102.593 40.0008C102.223 40.0008 101.926 40.2972 101.926 40.6677Z" fill="white"/>
<path fill-rule="evenodd" clip-rule="evenodd" d="M102.428 41.1246H102.199V40.186H102.576C102.699 40.186 102.796 40.2149 102.866 40.2725C102.94 40.3342 102.977 40.4186 102.977 40.5256C102.977 40.6039 102.959 40.6697 102.922 40.7232C102.897 40.7603 102.864 40.7911 102.823 40.8158L103.045 41.1246H102.78L102.601 40.8714C102.592 40.8714 102.584 40.8714 102.576 40.8714H102.428V41.1246ZM102.428 40.396V40.6615H102.576C102.638 40.6615 102.683 40.6491 102.712 40.6244C102.736 40.6059 102.749 40.575 102.749 40.5256C102.749 40.4824 102.736 40.4515 102.712 40.433C102.683 40.4083 102.638 40.396 102.576 40.396H102.428Z" fill="white"/>
<path fill-rule="evenodd" clip-rule="evenodd" d="M49.1897 37.3825C49.4037 37.259 49.6487 37.1972 49.9245 37.1972C50.2208 37.1972 50.4864 37.2672 50.721 37.4072C50.9556 37.5471 51.1409 37.7427 51.2767 37.9938C51.4167 38.249 51.4866 38.5454 51.4866 38.8829C51.4866 39.2122 51.4167 39.5065 51.2767 39.7659C51.1409 40.0252 50.9556 40.2269 50.721 40.371C50.4822 40.5151 50.2167 40.5871 49.9245 40.5871C49.6404 40.5871 49.3914 40.5254 49.1773 40.4019C48.9633 40.2784 48.8027 40.1219 48.6957 39.9326V40.5377H48.1523V36.0981H48.6957V37.8579C48.8069 37.6644 48.9715 37.506 49.1897 37.3825ZM50.7766 38.2346C50.6778 38.0493 50.5419 37.9094 50.369 37.8147C50.2003 37.7159 50.015 37.6665 49.8133 37.6665C49.6116 37.6665 49.4264 37.7159 49.2576 37.8147C49.0847 37.9135 48.9489 38.0555 48.8501 38.2407C48.7472 38.426 48.6957 38.6421 48.6957 38.8891C48.6957 39.1361 48.7472 39.3522 48.8501 39.5374C48.9489 39.7226 49.0847 39.8647 49.2576 39.9635C49.4264 40.0623 49.6116 40.1117 49.8133 40.1117C50.015 40.1117 50.2003 40.0623 50.369 39.9635C50.5419 39.8647 50.6778 39.7226 50.7766 39.5374C50.8754 39.3522 50.9248 39.134 50.9248 38.8829C50.9248 38.6318 50.8754 38.4157 50.7766 38.2346Z" fill="white"/>
<path d="M55.0314 37.2466L53.0556 42.0813H52.4937L53.142 40.5006L51.8145 37.2466H52.4196L53.4507 39.914L54.4695 37.2466H55.0314Z" fill="white"/>
</svg>
