<svg width="104" height="44" viewBox="0 0 104 44" fill="none" xmlns="http://www.w3.org/2000/svg">
    <g clip-path="url(#clip0_13025_222287)">
        <path
            d="M90.4931 37.7156C90.458 37.6941 90.4088 37.6671 90.4088 37.6671L90.4881 37.6132C90.6795 37.495 90.8313 37.3209 90.9227 37.1138C91.0297 36.8388 91.0853 36.5464 91.0874 36.2511C91.0745 35.7118 90.9098 34.9763 90.4153 34.6754C90.185 34.5534 89.9276 34.4926 89.6672 34.4985C89.1641 34.4856 87.0625 34.5136 86.529 34.5136C86.3185 34.4984 86.1075 34.5385 85.9168 34.6301C85.832 34.6702 85.7559 34.7273 85.6941 34.7979C85.6315 34.8686 85.584 34.9513 85.5547 35.041C85.4957 35.2516 85.4645 35.4692 85.4614 35.6881V37.7146C85.4614 38.3444 85.4614 38.9753 85.4552 39.6073C85.4449 39.869 85.4735 40.1308 85.5406 40.3838C85.5774 40.5056 85.6423 40.6167 85.7308 40.7073C85.8244 40.7933 85.9342 40.8598 86.0535 40.9029C86.1724 40.946 86.2989 40.965 86.4254 40.9586C86.7973 40.9759 89.2388 41.019 90.0904 40.9177C90.8385 40.8271 91.113 40.0991 91.1676 39.4348C91.2027 39.0895 91.1707 38.7406 91.0724 38.408C90.9762 38.1098 90.7685 37.8613 90.4931 37.7156ZM86.8231 35.7884C86.8226 35.7653 86.8274 35.7425 86.8367 35.7215C86.8457 35.7008 86.8589 35.682 86.8751 35.6665C86.8913 35.6509 86.9107 35.6388 86.9321 35.6309C86.9534 35.6232 86.9765 35.6203 86.9992 35.6223C87.4981 35.6104 88.0038 35.5954 88.4951 35.5954C88.7557 35.5954 89.0135 35.6104 89.2744 35.6223C89.3581 35.6248 89.4393 35.6542 89.5061 35.7064C89.5718 35.7593 89.6207 35.8311 89.645 35.9124C89.7582 36.2277 89.7582 36.5731 89.645 36.8885C89.6181 36.9522 89.5744 37.0073 89.5188 37.0481C89.4636 37.0892 89.3982 37.1139 89.3295 37.1192C88.8968 37.1376 88.4621 37.1527 88.0272 37.1689V37.1624C87.6683 37.1624 87.3014 37.1624 86.9393 37.1624C86.8539 37.1624 86.809 37.1354 86.809 37.0427C86.8231 36.6231 86.8231 36.2047 86.8231 35.7884ZM89.8148 39.2665C89.8193 39.373 89.7933 39.4786 89.7398 39.5706C89.6863 39.6628 89.6078 39.7377 89.5133 39.7863C89.4176 39.8263 89.3161 39.8521 89.2133 39.8629C89.0896 39.878 88.9657 39.8845 88.8412 39.8823H87.5301C87.3737 39.8845 87.2171 39.878 87.0613 39.8629C86.8388 39.8338 86.7994 39.796 86.7994 39.5555V38.5083C86.7994 38.2473 86.7994 38.2473 87.0582 38.2473H88.0466C88.3666 38.2473 88.68 38.2538 89.008 38.2473C89.1765 38.2396 89.3445 38.2668 89.5018 38.3271C89.6083 38.3805 89.6921 38.4709 89.7377 38.5817C89.8202 38.7998 89.8455 39.0356 89.8116 39.2665H89.8148Z"
            fill="black" />
        <path
            d="M102.86 39.8911H100.765C100.298 39.8911 99.8312 39.8911 99.3629 39.8705C99.3274 39.8709 99.292 39.8631 99.2596 39.8477C99.2276 39.833 99.1994 39.812 99.1753 39.7858C99.1338 39.7132 99.114 39.6294 99.1185 39.545V38.3926C99.1185 38.269 99.1484 38.2082 99.2854 38.2104H102.858V37.1253H99.219C99.1422 37.1253 99.109 37.0873 99.109 37.0038V35.8992C99.109 35.8287 99.1185 35.7586 99.1371 35.6909C99.15 35.6599 99.1713 35.6335 99.1982 35.6149C99.2255 35.5967 99.2572 35.5876 99.2894 35.5889C99.4162 35.5889 101.893 35.5704 102.851 35.5683V34.4951H98.781C98.6156 34.4939 98.4516 34.5309 98.3017 34.6037C98.1898 34.663 98.0938 34.75 98.0215 34.857C97.949 34.964 97.9029 35.0879 97.8867 35.2178C97.8652 35.3547 97.8585 35.4938 97.8666 35.6323V39.8325C97.8597 40.0289 97.8826 40.2253 97.9344 40.4141C97.9759 40.5665 98.0619 40.7016 98.1803 40.8004C98.364 40.9282 98.582 40.9916 98.803 40.9816H102.876L102.86 39.8911Z"
            fill="black" />
        <path
            d="M75.8109 34.4962C74.9453 34.5309 74.0297 34.4712 73.3504 35.1146C73.1056 35.3563 72.9205 35.6538 72.8107 35.9826C72.7301 36.2036 72.6716 36.4322 72.636 36.6651C72.5967 36.9463 72.5732 37.2296 72.5658 37.5136C72.5582 37.7463 72.5639 37.9792 72.5828 38.2112C72.5893 38.4045 72.6071 38.5972 72.636 38.7884C72.669 38.9783 72.7286 39.1638 72.7787 39.3493C72.8091 39.4694 72.8482 39.5869 72.8958 39.7009C73.0208 39.9789 73.2022 40.2267 73.4281 40.4278C73.689 40.6562 74.0027 40.813 74.3395 40.8835C74.6025 40.9336 74.8686 40.9648 75.1359 40.9769C75.3222 40.9898 75.5117 40.9769 75.7002 40.9769H77.8083V39.8919H77.7146C76.9214 39.8734 75.9994 39.9331 75.2051 39.8398C74.9428 39.8081 74.6894 39.7233 74.4598 39.5902C74.2639 39.4587 74.1186 39.262 74.0489 39.0336C74.004 38.9204 73.9732 38.802 73.9573 38.681C73.9255 38.4653 73.9059 38.248 73.8988 38.03C73.8817 37.2857 73.8029 36.2268 74.5546 35.8112C74.7011 35.7289 74.8602 35.6724 75.0252 35.6441C75.2968 35.5998 75.5711 35.5756 75.846 35.5714C76.4316 35.5606 77.145 35.5714 77.7306 35.5714C77.7584 35.5716 77.7862 35.569 77.8136 35.5638V34.4951H75.8014L75.8109 34.4962Z"
            fill="black" />
        <path
            d="M93.7625 39.8959C93.6644 39.8949 93.5663 39.888 93.4687 39.8751C93.4394 39.8743 93.4098 39.8672 93.383 39.8543C93.3558 39.8421 93.3315 39.8242 93.3119 39.8019C93.2921 39.7797 93.2771 39.7536 93.2677 39.7254C93.2587 39.6973 93.2551 39.6675 93.2577 39.6381V34.6557C93.2568 34.6019 93.2525 34.5482 93.2436 34.4951H91.9247C91.9132 34.5305 91.908 34.5673 91.908 34.6044V39.2557C91.8865 39.611 91.9013 39.9675 91.9533 40.3197C91.9796 40.4487 92.0354 40.5701 92.1158 40.6747C92.2054 40.7783 92.3178 40.8596 92.4445 40.9121C92.5713 40.9647 92.7087 40.987 92.8455 40.9773C94.201 40.9893 95.7699 40.9773 97.1328 40.9773H97.1495V39.8969H93.7625V39.8959Z"
            fill="black" />
        <path
            d="M79.6932 34.4951H78.2891C78.3425 34.6037 80.9775 38.958 80.9775 38.958L81.0025 40.9826H82.3467L82.3206 38.8777L79.6932 34.4951Z"
            fill="black" />
        <path
            d="M81.8711 37.5464C81.8711 37.5464 82.4716 38.5488 82.5078 38.5799L84.974 34.4951H83.6695L81.8711 37.5464Z"
            fill="#EC1F27" />
        <path
            d="M62.1991 34.8941L62.2003 34.8924C62.614 34.3618 63.1341 33.9251 63.727 33.6108C64.3196 33.2965 64.9717 33.1118 65.6405 33.0688L65.6422 33.0686C66.8587 32.9689 68.0651 33.3559 69 34.1458L69.0014 34.1471L69.0031 34.1483C69.5521 34.5779 69.9999 35.1247 70.314 35.7493C70.6281 36.374 70.8009 37.0609 70.8197 37.7607L70.82 37.764C70.8558 38.3788 70.7708 38.9947 70.5701 39.5764C70.3693 40.1582 70.0567 40.6944 69.6499 41.1544L69.6492 41.1553C68.7222 42.2263 67.6108 42.7822 66.1262 42.8206C64.7483 42.8576 63.5685 42.4319 62.5913 41.475C61.6134 40.5175 61.1312 39.3376 61.1055 37.9528C61.1112 36.8372 61.4974 35.7575 62.1991 34.8941ZM62.3435 39.0481L62.8679 39.4157C62.8667 39.419 62.8655 39.4223 62.8643 39.4256L62.862 39.4322L62.8608 39.439C62.8479 39.5004 62.835 39.562 62.8219 39.6239C62.7782 39.8309 62.7343 40.04 62.6954 40.2489C62.6784 40.315 62.6846 40.385 62.7125 40.4472C62.7405 40.5097 62.7889 40.5606 62.8498 40.5914C63.1462 40.7647 63.437 40.947 63.7222 41.1384L63.7227 41.1386C64.0124 41.3312 64.7846 41.849 64.8779 41.9191C64.9254 41.9547 64.9657 41.9861 64.9941 42.0086C65.0039 42.0161 65.012 42.0227 65.0187 42.028C65.0371 42.0708 65.0665 42.1357 65.0925 42.1926C65.1087 42.2282 65.1242 42.2615 65.1354 42.2859L65.149 42.3151L65.1526 42.3231L65.1536 42.3252L65.1538 42.3258L65.1541 42.3259L65.1808 42.3834L65.2436 42.386L65.4481 42.3947L65.45 42.3948L65.7797 42.402C66.2673 42.4122 66.7544 42.3566 67.2275 42.2368C67.2278 42.2367 67.2278 42.2367 67.228 42.2366L67.2688 42.2267L67.2717 42.226C67.3822 42.1957 67.491 42.1586 67.597 42.1148C67.755 42.0518 67.9085 41.9782 68.0567 41.8946L68.057 41.8945C68.2479 41.7858 68.4326 41.666 68.6097 41.5357L68.6107 41.535C68.7656 41.4183 68.9129 41.2921 69.0523 41.1572L69.053 41.1565C69.1991 41.0125 69.3346 40.8579 69.4583 40.6939C69.5853 40.5326 69.7003 40.3619 69.8017 40.1832L69.8032 40.1806C69.9125 39.9746 70.0104 39.7625 70.096 39.5453L70.0965 39.544C70.2481 39.1437 70.3469 38.7251 70.3906 38.2989V38.2985C70.4183 38.0179 70.4104 37.7348 70.367 37.4562L70.3667 37.4549C70.2416 36.7133 69.9595 36.0074 69.5399 35.3851L69.539 35.3837C69.0895 34.74 68.4897 34.2175 67.7922 33.8624L67.7913 33.862C67.1046 33.5205 66.3336 33.389 65.5737 33.4839C65.2042 33.5287 64.8414 33.6183 64.4931 33.7507L64.4929 33.7508C64.1253 33.8914 63.7761 34.0767 63.4534 34.3028C63.2489 34.4421 63.0574 34.5997 62.8811 34.7736L62.8799 34.7746C62.7264 34.9304 62.5887 35.1044 62.4555 35.2729C62.4111 35.329 62.3672 35.3845 62.3235 35.4385L62.322 35.4403C62.2777 35.4973 62.2383 35.5581 62.2044 35.6219L62.0779 35.8595L62.3304 35.7698C62.3715 35.7552 62.4328 35.7269 62.4879 35.7016L62.4922 35.6996C62.5526 35.6718 62.6056 35.6476 62.6369 35.6365C62.6648 35.6266 62.6958 35.6142 62.7259 35.6022C62.7376 35.5975 62.7491 35.5929 62.7603 35.5886C62.777 35.582 62.7935 35.5757 62.8094 35.5699L62.5252 36.623C62.5221 36.6213 62.5192 36.6196 62.5161 36.6179C62.5106 36.6148 62.5051 36.6116 62.4994 36.6083C62.434 36.5708 62.3533 36.5247 62.2738 36.482C62.1953 36.4398 62.1146 36.399 62.0497 36.3731C62.0182 36.3605 61.9843 36.3489 61.9535 36.3441C61.9387 36.3418 61.9168 36.3397 61.8934 36.3445C61.8683 36.3496 61.8308 36.3654 61.8094 36.4069C61.796 36.433 61.7831 36.468 61.7874 36.5077C61.7924 36.5529 61.8175 36.5838 61.8416 36.6024C61.8619 36.6177 61.8838 36.6263 61.8936 36.6301L61.8941 36.6303C61.8972 36.6315 61.8993 36.6323 61.9012 36.633C61.9036 36.6339 61.9053 36.6346 61.9077 36.6356C61.9091 36.6361 61.9101 36.6365 61.9106 36.6368L62.1543 36.7801L62.154 36.7802L62.1566 36.7816L62.3798 36.9044C62.3065 36.9827 62.1967 37.0981 62.0798 37.2213C62.0492 37.2534 62.0182 37.2862 61.9869 37.3189C61.8774 37.4343 61.7693 37.5484 61.6874 37.6361C61.6466 37.6798 61.612 37.7174 61.5867 37.7455C61.5742 37.7594 61.5635 37.7716 61.5554 37.7813C61.5513 37.7861 61.5473 37.791 61.5437 37.7957L61.5435 37.796C61.5415 37.7985 61.5337 37.8087 61.5279 37.8213C61.5148 37.8496 61.5053 37.8831 61.5093 37.9187C61.5139 37.9584 61.5346 37.9914 61.5645 38.0114L61.5723 38.0166L61.5807 38.0203C61.6046 38.0307 61.6301 38.036 61.6559 38.036C61.6812 38.036 61.7062 38.031 61.7294 38.0211C61.7614 38.008 61.7826 37.9854 61.7919 37.9752C61.7965 37.9702 61.801 37.9648 61.8041 37.9611C61.8046 37.9604 61.8053 37.9598 61.8058 37.9592C61.8094 37.9548 61.811 37.953 61.8122 37.952L61.8136 37.9505C61.9394 37.8187 62.1354 37.6084 62.3018 37.4275C62.38 37.3423 62.4521 37.2633 62.5075 37.2019L62.5113 37.2112C62.5541 37.3109 62.6132 37.4489 62.6789 37.6026C62.7825 37.8456 62.9023 38.1272 62.9985 38.3569L62.7813 38.3253L62.7806 38.3253C62.7233 38.3173 62.666 38.3093 62.6087 38.3013C62.3416 38.2641 62.0731 38.2267 61.8048 38.1932L61.8008 38.1927L61.7965 38.1925C61.7597 38.1909 61.7229 38.1972 61.6888 38.2108C61.6547 38.2245 61.6237 38.2454 61.5981 38.272L61.5962 38.2738L61.5945 38.2756C61.5597 38.3157 61.5485 38.3641 61.5556 38.4099C61.5621 38.4504 61.5816 38.4836 61.5984 38.5065C61.6313 38.5517 61.6776 38.5896 61.6998 38.6077L61.7005 38.6084L61.7041 38.6112L61.7077 38.6137L62.3435 39.0481ZM61.9203 36.5504C61.9203 36.5504 61.9206 36.5504 61.9211 36.5505L61.9203 36.5504Z"
            fill="black" />
        <path
            d="M64.8214 39.8327C64.7526 40.0733 64.7035 40.3192 64.6751 40.5679C64.661 40.6836 64.6598 40.8535 64.6615 41.012C64.6617 41.0295 64.6619 41.0468 64.6622 41.0639C64.4156 40.6774 64.169 40.2915 63.9225 39.9063L63.9222 39.9062C63.8824 39.8438 63.8306 39.7899 63.7702 39.7474C63.6385 39.6513 63.5024 39.5555 63.3613 39.4682L63.3563 39.4651L63.3511 39.4627C63.3461 39.4602 63.342 39.4559 63.3401 39.4505C63.3382 39.4452 63.3384 39.4393 63.3408 39.4341L63.3444 39.4264L63.3465 39.4182C63.3628 39.3586 63.3778 39.3001 63.3928 39.2424C63.4229 39.1258 63.452 39.0123 63.4888 38.899C63.4933 38.8855 63.4974 38.8718 63.5005 38.858C63.9316 39.176 64.361 39.4932 64.7884 39.8095L64.7903 39.8107L64.8214 39.8327ZM64.6397 37.7952L63.4365 38.469C63.3358 38.2283 63.1962 37.8963 63.0747 37.6087C63.009 37.4534 62.9486 37.3109 62.9023 37.2026C62.9451 37.2155 62.9933 37.23 63.0458 37.2458C63.2556 37.3091 63.5334 37.3937 63.8122 37.4787C64.0908 37.5638 64.3698 37.6492 64.5815 37.7142C64.629 37.7288 64.6732 37.7423 64.713 37.7546L64.6402 37.7949L64.6397 37.7952Z"
            fill="black" />
        <path
            d="M66.9238 36.4713C66.9228 36.4674 66.9221 36.4635 66.9219 36.4594C66.9219 36.4567 66.9219 36.4541 66.9219 36.4517V36.4513V36.4504C66.9221 36.4475 66.9226 36.4448 66.9228 36.4424C66.925 36.4434 66.9271 36.4445 66.929 36.4458C66.9319 36.4478 66.9345 36.4498 66.9364 36.4517C66.9374 36.4529 66.9386 36.454 66.9393 36.455C66.9383 36.4569 66.9367 36.4591 66.9348 36.4615C66.9333 36.4631 66.9317 36.4647 66.93 36.4663L66.9298 36.4666C66.9278 36.4682 66.9259 36.4698 66.9238 36.4713Z"
            fill="black" />
        <path
            d="M66.9895 36.7119C67.0005 36.7051 67.0114 36.6984 67.0219 36.692C67.0026 36.7741 66.983 36.8561 66.9637 36.938C66.8701 37.3314 66.7771 37.7226 66.6926 38.1156L66.6918 38.1198L66.6911 38.124C66.6883 38.146 66.6809 38.1671 66.6689 38.1859C66.6587 38.2025 66.6453 38.217 66.6298 38.2285C66.6062 38.2381 66.5806 38.2424 66.5551 38.2412C66.5269 38.2397 66.4995 38.2315 66.4751 38.2171L66.4711 38.2147L66.467 38.2127C66.2345 38.1025 66.0083 37.9834 65.7796 37.863C65.6734 37.8071 65.5667 37.7509 65.4586 37.6952C65.5579 37.6293 65.6548 37.5636 65.7512 37.4983C65.8989 37.3983 66.0452 37.2992 66.1966 37.2012C66.3243 37.119 66.4498 37.0429 66.5768 36.9659C66.678 36.9046 66.7804 36.8426 66.8854 36.7765C66.8926 36.7722 66.9069 36.7632 66.9248 36.752C66.9439 36.7401 66.9671 36.7256 66.9895 36.7119ZM65.7729 36.778C65.8619 36.8243 65.95 36.8706 66.0207 36.908C65.9476 36.9597 65.8586 37.0223 65.7665 37.0871C65.7168 37.1221 65.6662 37.1576 65.6168 37.1925C65.5142 37.2646 65.417 37.3334 65.3438 37.3859C65.3633 37.1945 65.3841 37.003 65.4049 36.8149C65.4065 36.7978 65.4084 36.7808 65.4103 36.7638V36.7635C65.4123 36.7464 65.4144 36.7269 65.4168 36.7064C65.4206 36.6721 65.4249 36.635 65.428 36.6016C65.4507 36.6127 65.4779 36.6263 65.5084 36.6418C65.5839 36.68 65.6786 36.7289 65.7729 36.778Z"
            fill="black" />
        <path
            d="M66.0349 35.8556C65.9578 35.8273 65.8798 35.8006 65.8008 35.7737L66.054 35.5378L66.0564 35.5357L66.0586 35.5334C66.0793 35.5116 66.1065 35.4972 66.1361 35.4925C66.166 35.4877 66.1963 35.4928 66.2228 35.507L66.2266 35.509L66.2307 35.5107C66.2865 35.5349 66.3424 35.5581 66.3975 35.5811C66.5579 35.6479 66.7152 35.7134 66.8651 35.7961C66.9866 35.8632 67.1035 35.9379 67.2245 36.0151C67.2331 36.0206 67.242 36.0261 67.2506 36.0316C67.3119 36.0715 67.3728 36.116 67.4332 36.1627L67.4358 36.1647C67.4675 36.1876 67.4978 36.2126 67.5265 36.2396C67.4935 36.2474 67.4604 36.2539 67.4272 36.2592L67.425 36.2595L67.4229 36.2599C67.3191 36.2807 67.2114 36.2735 67.1112 36.2389L67.1085 36.238C67.1019 36.2359 67.0792 36.2293 67.0491 36.2205C67.0229 36.2128 66.9909 36.2035 66.9594 36.1942C66.8875 36.1729 66.8212 36.1528 66.804 36.1461L66.803 36.1457L66.0359 35.8559L66.0349 35.8556Z"
            fill="black" />
        <path d="M63.2109 37.0074L65.1639 36.1362L65.0164 37.5199L63.2109 37.0074Z" fill="black" />
        <path
            d="M64.9606 35.8854C64.6364 36.0289 64.3161 36.1729 63.9977 36.3162L63.9881 36.3204C63.6289 36.4819 63.2721 36.6424 62.9141 36.8001C62.9384 36.7101 62.9628 36.6201 62.9871 36.53C63.063 36.2488 63.1389 35.9674 63.217 35.6872L63.2179 35.6837L63.2186 35.6801C63.2298 35.6252 63.2528 35.5735 63.2855 35.5283C63.3396 35.4729 63.4091 35.4351 63.4848 35.42C63.5619 35.4046 63.6418 35.4134 63.7139 35.4451C63.9438 35.5584 64.1824 35.6401 64.4183 35.7144C64.4786 35.7333 64.5386 35.7518 64.5982 35.7702C64.7204 35.8078 64.8412 35.8449 64.9606 35.8854Z"
            fill="black" />
        <path
            d="M68.4047 38.1551C68.3235 38.1316 68.2417 38.1122 68.1586 38.0968L68.1572 38.0966C67.9748 38.0657 67.7901 38.0522 67.6051 38.056C67.4225 38.06 67.2404 38.0743 67.0595 38.099L67.059 38.099C67.0432 38.1013 67.0275 38.1038 67.0117 38.1065C67.0172 38.0842 67.0227 38.0619 67.0279 38.0398C67.0423 37.982 67.0561 37.9249 67.0692 37.8684C67.0876 37.7896 67.106 37.7109 67.1244 37.6323C67.1962 37.3228 67.2681 37.0148 67.3425 36.7104L67.3428 36.7089C67.3433 36.7074 67.3437 36.7055 67.3444 36.7031C67.3473 36.7052 67.3502 36.7076 67.3528 36.7102L67.3533 36.7107C67.7003 37.0534 68.0457 37.4004 68.3889 37.7517C68.398 37.7626 68.4035 37.776 68.4047 37.7901V37.7906V37.7916V37.7925V37.7936V37.7946V37.7956V37.7966V37.7976V37.7986V37.7997V37.8007V37.8017V37.8028V37.8038V37.8048V37.8059V37.8069V37.808V37.8091V37.8101V37.8112V37.8123V37.8133V37.8144V37.8155V37.8166V37.8176V37.8187V37.8198V37.8209V37.822V37.8231V37.8242V37.8253V37.8265V37.8276V37.8287V37.8377V37.8389V37.8401V37.8412V37.8424V37.8435V37.8447V37.8458V37.847V37.8482V37.8493V37.8505V37.8517V37.8529V37.8541V37.8553V37.8564V37.8576V37.8588V37.86V37.8612V37.8624V37.8636V37.8648V37.866V37.8673V37.8685V37.8697V37.8709V37.8721V37.8733V37.8746V37.8758V37.877V37.8783V37.8795V37.8807V37.882V37.8832V37.8844V37.8857V37.8869V37.8882V37.8894V37.8907V37.8919V37.8932V37.8944V37.8957V37.897V37.8982V37.8995V37.9007V37.902V37.9033V37.9046V37.9058V37.9071V37.9084V37.9097V37.911V37.9122V37.9135V37.9148V37.9161V37.9174V37.9187V37.9199V37.9212V37.9225V37.9238V37.9251V37.9264V37.9277V37.929V37.9303V37.9316V37.9329V37.9342V37.9355V37.9368V37.9382V37.9395V37.9408V37.9421V37.9434V37.9447V37.946V37.9473V37.9487V37.95V37.9513V37.9526V37.9539V37.9552V37.9566V37.9579V37.9592V37.9605V37.9618V37.9632V37.9645V37.9658V37.9671V37.9685V37.9698V37.9711V37.9724V37.9738V37.9751V37.9764V37.9778V37.9791V37.9804V37.9817V37.9831V37.9844V37.9858V37.9871V37.9884V37.9897V37.9911V37.9924V37.9937V37.9951V37.9964V37.9977V37.9991V38.0004V38.0017V38.0031V38.0044V38.0057V38.007V38.0084V38.0097V38.0111V38.0124V38.0137V38.015V38.0164V38.0177V38.019V38.0204V38.0217V38.023V38.0243V38.0257V38.027V38.0283V38.0297V38.031V38.0323V38.0336V38.0349V38.0363V38.0376V38.0389V38.0403V38.0415V38.0429V38.0442V38.0455V38.0468V38.0482V38.0495V38.0508V38.0521V38.0534V38.0547V38.056V38.0573V38.0587V38.06V38.0613V38.0626V38.0639V38.0652V38.0665V38.0678V38.0691V38.0704V38.0717V38.073V38.0743V38.0755V38.0768V38.0781V38.0794V38.0807V38.082V38.0833V38.0846V38.0858V38.0871V38.0884V38.0897V38.0909V38.0922V38.0935V38.0948V38.096V38.0973V38.0986V38.0998V38.1011V38.1023V38.1036V38.1049V38.1061V38.1074V38.1086V38.1099V38.1111V38.1124V38.1136V38.1148V38.1161V38.1173V38.1185V38.1198V38.121V38.1222V38.1234V38.1247V38.1259V38.1271V38.1283V38.1295V38.1307V38.1319V38.1332V38.1344V38.1356V38.1368V38.1379V38.1391V38.1404V38.1415V38.1427V38.1439V38.1451V38.1463V38.1474V38.1486V38.1498V38.1509V38.1521V38.1533V38.1544V38.1551Z"
            fill="black" />
        <path
            d="M64.9371 39.5261L63.7461 38.6458L65.003 37.9492C65.0083 38.055 65.0133 38.1711 65.0185 38.2908C65.0328 38.623 65.0484 38.9825 65.0765 39.2253C65.0846 39.3303 65.0579 39.4351 65.0006 39.5232C64.9925 39.5334 64.9842 39.5434 64.9756 39.5532C64.9627 39.5445 64.9498 39.5354 64.9371 39.5261V39.5261Z"
            fill="black" />
        <path
            d="M68.7131 37.6825L68.7134 37.6389L68.6831 37.6081L67.6133 36.5257C67.7555 36.4964 67.9026 36.5004 68.0429 36.5373C68.2706 36.6136 68.478 36.7414 68.6487 36.9111C68.8203 37.0813 68.9504 37.2889 69.0292 37.5179C69.1313 37.8371 69.1313 38.1806 69.0289 38.4997C69.021 38.5238 69.0065 38.5626 68.9912 38.6026C68.9413 38.5547 68.8726 38.4867 68.812 38.426C68.7754 38.3895 68.742 38.356 68.7179 38.3316L68.7091 38.3228L68.7131 37.6825Z"
            fill="black" />
        <path
            d="M63.6555 40.0656L63.6584 40.0715L63.662 40.0771L64.3983 41.2293L63.0898 40.4095L63.2261 39.7539C63.2433 39.7656 63.2603 39.7773 63.2775 39.7889C63.3987 39.8715 63.5164 39.9515 63.6333 40.0329C63.6424 40.0426 63.6498 40.0536 63.6555 40.0656Z"
            fill="black" />
        <path
            d="M65.3694 39.0262C65.3637 38.9123 65.3579 38.7961 65.3522 38.6792C65.3403 38.4432 65.3286 38.2045 65.3164 37.9766L66.1788 38.4262C66.1537 38.4426 66.1282 38.459 66.1024 38.4756C66.0098 38.5354 65.9148 38.5966 65.8229 38.6604L65.8224 38.6607L65.7129 38.7375L65.7114 38.7386L65.71 38.7396C65.6222 38.806 65.5348 38.876 65.4513 38.9511C65.4238 38.9757 65.3966 39.0009 65.3694 39.0262Z"
            fill="black" />
        <path d="M62.2656 38.6621L63.1884 38.7974L63.0748 39.2161L62.2656 38.6621Z" fill="black" />
        <path
            d="M64.3949 35.2694L64.3959 35.2693C64.53 35.2552 64.6654 35.2528 64.8062 35.2503C64.8196 35.25 64.8332 35.2498 64.8465 35.2495C64.8683 35.2497 64.8893 35.2567 64.9067 35.2696C64.9243 35.2826 64.9375 35.3009 64.9442 35.3219L64.947 35.3308L64.9513 35.339C64.9704 35.3749 64.9967 35.4238 65.0248 35.4765C65.0466 35.5172 65.0697 35.5602 65.0917 35.6013C64.973 35.5629 64.8239 35.5142 64.6747 35.4651C64.5164 35.413 64.3589 35.3607 64.2386 35.3198C64.2171 35.3125 64.1968 35.3056 64.178 35.2991C64.2035 35.2931 64.2295 35.2886 64.2558 35.2857C64.2842 35.2852 64.3109 35.2816 64.3326 35.2782C64.3386 35.2773 64.3443 35.2764 64.3496 35.2756C64.3665 35.2729 64.3804 35.2707 64.3949 35.2694ZM64.0391 35.249C64.0391 35.249 64.0395 35.2492 64.0403 35.2496C64.0393 35.2492 64.0391 35.249 64.0391 35.249Z"
            fill="black" />
        <path
            d="M65.7157 35.3505C65.7328 35.354 65.7522 35.3579 65.771 35.3625C65.6383 35.4858 65.5433 35.5714 65.4796 35.6275C65.4765 35.6301 65.4736 35.6327 65.4708 35.6352C65.4505 35.5978 65.4307 35.561 65.4109 35.5245C65.3669 35.4435 65.324 35.3643 65.2812 35.2837C65.3054 35.2837 65.3295 35.2864 65.3529 35.2917L65.356 35.2924L65.3591 35.2929L65.7157 35.3505Z"
            fill="black" />
        <path
            d="M65.8109 36.099L65.9933 36.1682C65.9281 36.1719 65.8625 36.174 65.7968 36.1749C65.7742 36.1752 65.7472 36.1771 65.7219 36.1789C65.7142 36.1795 65.7066 36.18 65.6994 36.1805C65.6658 36.1827 65.6329 36.1842 65.6013 36.1829C65.5391 36.1805 65.5035 36.1678 65.4846 36.1506C65.4799 36.1429 65.4765 36.1344 65.4746 36.1254C65.4722 36.1145 65.472 36.1031 65.4741 36.092L65.4756 36.0843L65.476 36.0765C65.477 36.053 65.4787 36.0295 65.4815 36.0061C65.5157 36.0003 65.5517 36.0042 65.5932 36.0156C65.625 36.0243 65.6582 36.0368 65.6949 36.0519C65.7047 36.0559 65.715 36.0603 65.7257 36.0647C65.7529 36.0761 65.7823 36.0883 65.8109 36.099Z"
            fill="black" />
    </g>
    <path
        d="M54.0352 36.6997H54.5352L55.2159 38.5301C55.2558 38.6377 55.2916 38.7409 55.3252 38.8399C55.3588 38.9388 55.3882 39.0335 55.4155 39.1238C55.4407 39.2141 55.4617 39.3002 55.4765 39.3862H55.4954C55.5206 39.2894 55.5584 39.1647 55.6088 39.0076C55.6571 38.8506 55.7097 38.6915 55.7664 38.528L56.4093 36.7019H56.9115L55.571 40.3176C55.4996 40.5111 55.4176 40.6789 55.3231 40.823C55.2285 40.9671 55.113 41.0768 54.9785 41.1543C54.844 41.2317 54.6802 41.2704 54.489 41.2704C54.4007 41.2704 54.323 41.264 54.2558 41.2554C54.1885 41.2446 54.1297 41.2339 54.0814 41.2188V40.8359C54.1234 40.8445 54.1717 40.8531 54.2327 40.8617C54.2915 40.8703 54.3524 40.8725 54.4175 40.8725C54.5331 40.8725 54.6339 40.8488 54.7201 40.8058C54.8062 40.7607 54.8798 40.6961 54.9407 40.6079C55.0016 40.5198 55.0563 40.4187 55.1004 40.3004L55.2685 39.8573L54.0352 36.6997Z"
        fill="black" />
    <path
        d="M51.4664 35.376V36.4945C51.4664 36.6235 51.4622 36.7483 51.4559 36.8687C51.4496 36.9892 51.4433 37.0838 51.4412 37.1505H51.4664C51.5505 37.0085 51.6723 36.8881 51.832 36.7913C51.9917 36.6923 52.1955 36.645 52.4413 36.645C52.8279 36.645 53.1346 36.7827 53.3636 37.0559C53.5927 37.329 53.7082 37.7355 53.7082 38.2733C53.7082 38.6282 53.6557 38.9272 53.5506 39.1702C53.4456 39.4133 53.2985 39.5983 53.1073 39.723C52.9161 39.8478 52.6913 39.9101 52.4308 39.9101C52.1871 39.9101 51.9875 39.8628 51.8299 39.7703C51.6744 39.6778 51.5526 39.5638 51.4685 39.4305H51.4328L51.3362 39.8542H51V35.3781H51.4664V35.376ZM52.3657 37.0451C52.143 37.0451 51.9665 37.0903 51.8341 37.1785C51.7038 37.2666 51.6093 37.4022 51.5526 37.5807C51.4958 37.7592 51.4664 37.9872 51.4664 38.2604V38.2862C51.4664 38.6841 51.5316 38.9874 51.6597 39.196C51.79 39.4068 52.0232 39.5101 52.3657 39.5101C52.6514 39.5101 52.8678 39.4025 53.0107 39.1874C53.1535 38.9723 53.225 38.6669 53.225 38.2668C53.225 37.8668 53.1536 37.5549 53.0128 37.3484C52.872 37.1419 52.6556 37.0408 52.3657 37.0408V37.0451Z"
        fill="black" />
    <g filter="url(#filter0_b_13025_222287)">
        <path
            d="M15.7871 1.62C23.7101 1.62 29.9502 7.61712 29.9502 14.7967C29.9502 21.9762 23.7082 27.9734 15.7871 27.9734C7.86589 27.9734 1.62391 21.9762 1.62391 14.7967C1.62391 7.61724 7.86589 1.62 15.7871 1.62ZM2.93363 14.7967C2.93363 21.5954 8.79827 26.9481 15.7871 26.9481C22.7759 26.9481 28.6405 21.5953 28.6405 14.7967C28.6405 7.99807 22.7759 2.64536 15.7871 2.64536C8.79827 2.64536 2.93363 7.99807 2.93363 14.7967Z"
            stroke="url(#paint0_linear_13025_222287)" stroke-width="3.24" />
    </g>
    <g filter="url(#filter1_b_13025_222287)">
        <path
            d="M62.0323 16.3907L62.0321 16.3923C61.2027 21.8473 56.8964 26.7268 51.4397 27.8299C50.9021 27.9386 50.3081 27.9539 49.6257 27.92L47.9354 27.8358C42.6233 27.5714 38.452 23.1874 38.452 17.8688V8.42833C38.452 8.13065 38.6934 7.88933 38.991 7.88933C39.2887 7.88933 39.53 8.13065 39.53 8.42833V16.1878C39.53 21.8071 44.0726 26.3692 49.6919 26.3932C50.1581 26.3952 50.6867 26.3713 51.2345 26.2628C56.0133 25.3168 59.8166 21.6431 60.8321 16.9806L60.8329 16.977C61.0042 16.1819 61.0969 15.3569 61.0969 14.5094C61.0969 13.667 61.0129 12.9019 60.852 12.1356C60.242 9.20786 58.5302 6.67933 56.1792 4.96135C54.2472 3.54747 51.8752 2.67351 49.3071 2.56645L49.2734 2.56505H49.2397H38.9246C38.6636 2.56505 38.452 2.35349 38.452 2.09252C38.452 1.83156 38.6636 1.62 38.9246 1.62H48.7905C48.8358 1.62432 48.8815 1.62676 48.9277 1.62727C55.6639 1.70117 61.143 6.53182 62.042 12.7008L62.0425 12.7044C62.1296 13.293 62.1749 13.8969 62.1749 14.5094C62.1749 15.1503 62.1262 15.7772 62.0323 16.3907Z"
            stroke="url(#paint1_linear_13025_222287)" stroke-width="3.24" />
    </g>
    <g filter="url(#filter2_b_13025_222287)">
        <path
            d="M70.1941 26.9963V2.59707C70.1941 2.13599 70.5679 1.76222 71.029 1.76222C71.49 1.76222 71.8638 2.136 71.8638 2.59707V26.9964C71.8638 27.4574 71.49 27.8312 71.029 27.8312C70.5679 27.8312 70.1941 27.4574 70.1941 26.9963Z"
            stroke="url(#paint2_linear_13025_222287)" stroke-width="3.24" />
    </g>
    <g filter="url(#filter3_b_13025_222287)">
        <path
            d="M82.5995 9.09752L82.5994 9.09745L78.7532 5.49056C78.6371 5.38166 78.5712 5.22957 78.5712 5.07037C78.5712 4.56603 79.1734 4.30519 79.5413 4.65021L86.5607 11.2336C91.285 15.6644 99.0192 12.3146 99.0192 5.83763V2.32987C99.0192 1.97088 99.3102 1.67986 99.6692 1.67986C100.028 1.67986 100.319 1.97088 100.319 2.32987V23.2328C100.319 24.1747 99.1946 24.6619 98.5074 24.0177C98.5074 24.0177 98.5074 24.0176 98.5074 24.0176L82.5995 9.09752ZM79.8692 14.276V27.3234C79.8692 27.6824 79.5782 27.9734 79.2192 27.9734C78.8602 27.9734 78.5692 27.6824 78.5692 27.3234V14.2759C78.5692 13.7069 79.2487 13.4125 79.6639 13.8018C79.7949 13.9247 79.8692 14.0963 79.8692 14.276Z"
            stroke="url(#paint3_linear_13025_222287)" stroke-width="3.24" />
    </g>
    <defs>
        <filter id="filter0_b_13025_222287" x="-47.9961" y="-48" width="127.566" height="125.593"
            filterUnits="userSpaceOnUse" color-interpolation-filters="sRGB">
            <feFlood flood-opacity="0" result="BackgroundImageFix" />
            <feGaussianBlur in="BackgroundImageFix" stdDeviation="24" />
            <feComposite in2="SourceAlpha" operator="in" result="effect1_backgroundBlur_13025_222287" />
            <feBlend mode="normal" in="SourceGraphic" in2="effect1_backgroundBlur_13025_222287" result="shape" />
        </filter>
        <filter id="filter1_b_13025_222287" x="-11.168" y="-48" width="122.965" height="125.556"
            filterUnits="userSpaceOnUse" color-interpolation-filters="sRGB">
            <feFlood flood-opacity="0" result="BackgroundImageFix" />
            <feGaussianBlur in="BackgroundImageFix" stdDeviation="24" />
            <feComposite in2="SourceAlpha" operator="in" result="effect1_backgroundBlur_13025_222287" />
            <feBlend mode="normal" in="SourceGraphic" in2="effect1_backgroundBlur_13025_222287" result="shape" />
        </filter>
        <filter id="filter2_b_13025_222287" x="20.3984" y="-48" width="101.262" height="125.593"
            filterUnits="userSpaceOnUse" color-interpolation-filters="sRGB">
            <feFlood flood-opacity="0" result="BackgroundImageFix" />
            <feGaussianBlur in="BackgroundImageFix" stdDeviation="24" />
            <feComposite in2="SourceAlpha" operator="in" result="effect1_backgroundBlur_13025_222287" />
            <feBlend mode="normal" in="SourceGraphic" in2="effect1_backgroundBlur_13025_222287" result="shape" />
        </filter>
        <filter id="filter3_b_13025_222287" x="28.9492" y="-47.9399" width="120.988" height="125.533"
            filterUnits="userSpaceOnUse" color-interpolation-filters="sRGB">
            <feFlood flood-opacity="0" result="BackgroundImageFix" />
            <feGaussianBlur in="BackgroundImageFix" stdDeviation="24" />
            <feComposite in2="SourceAlpha" operator="in" result="effect1_backgroundBlur_13025_222287" />
            <feBlend mode="normal" in="SourceGraphic" in2="effect1_backgroundBlur_13025_222287" result="shape" />
        </filter>
        <linearGradient id="paint0_linear_13025_222287" x1="0.00390625" y1="15.7215" x2="31.5702" y2="15.7215"
            gradientUnits="userSpaceOnUse">
            <stop stop-color="#BB1284" />
            <stop offset="0.9999" stop-color="#426EB6" />
            <stop offset="1" stop-color="#D62D90" stop-opacity="0" />
        </linearGradient>
        <linearGradient id="paint1_linear_13025_222287" x1="36.832" y1="15.7215" x2="63.7949" y2="15.7215"
            gradientUnits="userSpaceOnUse">
            <stop stop-color="#BB1284" />
            <stop offset="0.9999" stop-color="#426EB6" />
            <stop offset="1" stop-color="#D62D90" stop-opacity="0" />
        </linearGradient>
        <linearGradient id="paint2_linear_13025_222287" x1="68.3984" y1="15.7215" x2="73.6595" y2="15.7215"
            gradientUnits="userSpaceOnUse">
            <stop stop-color="#BB1284" />
            <stop offset="0.9999" stop-color="#426EB6" />
            <stop offset="1" stop-color="#D62D90" stop-opacity="0" />
        </linearGradient>
        <linearGradient id="paint3_linear_13025_222287" x1="76.9492" y1="15.7215" x2="101.939" y2="15.7215"
            gradientUnits="userSpaceOnUse">
            <stop stop-color="#BB1284" />
            <stop offset="0.9999" stop-color="#426EB6" />
            <stop offset="1" stop-color="#D62D90" stop-opacity="0" />
        </linearGradient>
        <clipPath id="clip0_13025_222287">
            <rect width="41.77" height="9.85141" fill="white" transform="translate(61.1055 33.0532)" />
        </clipPath>
    </defs>
</svg>